%TF.GenerationSoftware,KiCad,Pcbnew,9.0.6*%
%TF.CreationDate,2026-03-03T09:38:10+00:00*%
%TF.ProjectId,Pleasc,506c6561-7363-42e6-9b69-6361645f7063,rev?*%
%TF.SameCoordinates,Original*%
%TF.FileFunction,Profile,NP*%
%FSLAX46Y46*%
G04 Gerber Fmt 4.6, Leading zero omitted, Abs format (unit mm)*
G04 Created by KiCad (PCBNEW 9.0.6) date 2026-03-03 09:38:10*
%MOMM*%
%LPD*%
G01*
G04 APERTURE LIST*
%TA.AperFunction,Profile*%
%ADD10C,0.200000*%
%TD*%
G04 APERTURE END LIST*
D10*
X98927673Y-42864955D02*
X91449994Y-42864955D01*
X91449994Y-76806081D02*
G75*
G02*
X91449994Y-73606119I6J1599981D01*
G01*
X38927673Y-76806081D02*
X38927673Y-88235518D01*
X38927673Y-88235518D02*
X98927673Y-88235518D01*
X91449994Y-42864955D02*
G75*
G02*
X91449994Y-39664965I-34J1599995D01*
G01*
X38927673Y-42864955D02*
X38927673Y-73606081D01*
X98927673Y-39664955D02*
X98927673Y-28235518D01*
X46405353Y-73606081D02*
G75*
G02*
X46405352Y-76806079I77J-1599999D01*
G01*
X98927673Y-73606081D02*
X98927673Y-42864955D01*
X91449994Y-39664955D02*
X98927673Y-39664955D01*
X59127673Y-28235518D02*
X78727673Y-28235518D01*
X59127673Y-28235518D02*
X38927673Y-28235518D01*
X46405353Y-39664955D02*
G75*
G02*
X46401354Y-42864960I7J-1600005D01*
G01*
X98927673Y-76806081D02*
X91449994Y-76806081D01*
X98927673Y-28235518D02*
X78727673Y-28235518D01*
X98927673Y-88235518D02*
X98927673Y-76806081D01*
X91449994Y-73606081D02*
X98927673Y-73606081D01*
X38927673Y-73606081D02*
X46405353Y-73606081D01*
X38927673Y-28235518D02*
X38927673Y-39664955D01*
X46401354Y-42864955D02*
X38927673Y-42864955D01*
X38927673Y-39664955D02*
X46405353Y-39664955D01*
X46405352Y-76806081D02*
X38927673Y-76806081D01*
M02*
