%TF.GenerationSoftware,KiCad,Pcbnew,9.0.6*%
%TF.CreationDate,2026-03-03T09:38:10+00:00*%
%TF.ProjectId,Pleasc,506c6561-7363-42e6-9b69-6361645f7063,rev?*%
%TF.SameCoordinates,Original*%
%TF.FileFunction,Soldermask,Bot*%
%TF.FilePolarity,Negative*%
%FSLAX46Y46*%
G04 Gerber Fmt 4.6, Leading zero omitted, Abs format (unit mm)*
G04 Created by KiCad (PCBNEW 9.0.6) date 2026-03-03 09:38:10*
%MOMM*%
%LPD*%
G01*
G04 APERTURE LIST*
G04 Aperture macros list*
%AMRoundRect*
0 Rectangle with rounded corners*
0 $1 Rounding radius*
0 $2 $3 $4 $5 $6 $7 $8 $9 X,Y pos of 4 corners*
0 Add a 4 corners polygon primitive as box body*
4,1,4,$2,$3,$4,$5,$6,$7,$8,$9,$2,$3,0*
0 Add four circle primitives for the rounded corners*
1,1,$1+$1,$2,$3*
1,1,$1+$1,$4,$5*
1,1,$1+$1,$6,$7*
1,1,$1+$1,$8,$9*
0 Add four rect primitives between the rounded corners*
20,1,$1+$1,$2,$3,$4,$5,0*
20,1,$1+$1,$4,$5,$6,$7,0*
20,1,$1+$1,$6,$7,$8,$9,0*
20,1,$1+$1,$8,$9,$2,$3,0*%
G04 Aperture macros list end*
%ADD10C,3.100000*%
%ADD11C,1.676200*%
%ADD12C,1.226200*%
%ADD13C,0.010000*%
%ADD14C,1.900000*%
%ADD15C,3.200000*%
%ADD16RoundRect,0.102000X0.762000X-0.762000X0.762000X0.762000X-0.762000X0.762000X-0.762000X-0.762000X0*%
%ADD17C,1.728000*%
G04 APERTURE END LIST*
D10*
X92999129Y-75207780D02*
G75*
G02*
X89899129Y-75207780I-1550000J0D01*
G01*
X89899129Y-75207780D02*
G75*
G02*
X92999129Y-75207780I1550000J0D01*
G01*
X92999129Y-41266654D02*
G75*
G02*
X89899129Y-41266654I-1550000J0D01*
G01*
X89899129Y-41266654D02*
G75*
G02*
X92999129Y-41266654I1550000J0D01*
G01*
X47954487Y-75207780D02*
G75*
G02*
X44854487Y-75207780I-1550000J0D01*
G01*
X44854487Y-75207780D02*
G75*
G02*
X47954487Y-75207780I1550000J0D01*
G01*
X47954487Y-41266654D02*
G75*
G02*
X44854487Y-41266654I-1550000J0D01*
G01*
X44854487Y-41266654D02*
G75*
G02*
X47954487Y-41266654I1550000J0D01*
G01*
D11*
%TO.C,J4*%
X61248100Y-31140000D02*
G75*
G02*
X59571900Y-31140000I-838100J0D01*
G01*
X59571900Y-31140000D02*
G75*
G02*
X61248100Y-31140000I838100J0D01*
G01*
D12*
X65523100Y-40840000D02*
G75*
G02*
X64296900Y-40840000I-613100J0D01*
G01*
X64296900Y-40840000D02*
G75*
G02*
X65523100Y-40840000I613100J0D01*
G01*
X69723100Y-35340000D02*
G75*
G02*
X68496900Y-35340000I-613100J0D01*
G01*
X68496900Y-35340000D02*
G75*
G02*
X69723100Y-35340000I613100J0D01*
G01*
X69723100Y-40840000D02*
G75*
G02*
X68496900Y-40840000I-613100J0D01*
G01*
X68496900Y-40840000D02*
G75*
G02*
X69723100Y-40840000I613100J0D01*
G01*
D11*
X74448100Y-31140000D02*
G75*
G02*
X72771900Y-31140000I-838100J0D01*
G01*
X72771900Y-31140000D02*
G75*
G02*
X74448100Y-31140000I838100J0D01*
G01*
D13*
X66136200Y-36566200D02*
X63683800Y-36566200D01*
X63683800Y-34113800D01*
X66136200Y-34113800D01*
X66136200Y-36566200D01*
G36*
X66136200Y-36566200D02*
G01*
X63683800Y-36566200D01*
X63683800Y-34113800D01*
X66136200Y-34113800D01*
X66136200Y-36566200D01*
G37*
%TO.C,J1*%
X58246200Y-57026200D02*
X57093800Y-57026200D01*
X57093800Y-54173800D01*
X58246200Y-54173800D01*
X58246200Y-57026200D01*
G36*
X58246200Y-57026200D02*
G01*
X57093800Y-57026200D01*
X57093800Y-54173800D01*
X58246200Y-54173800D01*
X58246200Y-57026200D01*
G37*
X59896200Y-59726200D02*
X59143800Y-59726200D01*
X59143800Y-57873800D01*
X59896200Y-57873800D01*
X59896200Y-59726200D01*
G36*
X59896200Y-59726200D02*
G01*
X59143800Y-59726200D01*
X59143800Y-57873800D01*
X59896200Y-57873800D01*
X59896200Y-59726200D01*
G37*
X61146200Y-59726200D02*
X60393800Y-59726200D01*
X60393800Y-57873800D01*
X61146200Y-57873800D01*
X61146200Y-59726200D01*
G36*
X61146200Y-59726200D02*
G01*
X60393800Y-59726200D01*
X60393800Y-57873800D01*
X61146200Y-57873800D01*
X61146200Y-59726200D01*
G37*
X62396200Y-59726200D02*
X61643800Y-59726200D01*
X61643800Y-57873800D01*
X62396200Y-57873800D01*
X62396200Y-59726200D01*
G36*
X62396200Y-59726200D02*
G01*
X61643800Y-59726200D01*
X61643800Y-57873800D01*
X62396200Y-57873800D01*
X62396200Y-59726200D01*
G37*
X63646200Y-59726200D02*
X62893800Y-59726200D01*
X62893800Y-57873800D01*
X63646200Y-57873800D01*
X63646200Y-59726200D01*
G36*
X63646200Y-59726200D02*
G01*
X62893800Y-59726200D01*
X62893800Y-57873800D01*
X63646200Y-57873800D01*
X63646200Y-59726200D01*
G37*
X64896200Y-59726200D02*
X64143800Y-59726200D01*
X64143800Y-57873800D01*
X64896200Y-57873800D01*
X64896200Y-59726200D01*
G36*
X64896200Y-59726200D02*
G01*
X64143800Y-59726200D01*
X64143800Y-57873800D01*
X64896200Y-57873800D01*
X64896200Y-59726200D01*
G37*
X66946200Y-57026200D02*
X65793800Y-57026200D01*
X65793800Y-54173800D01*
X66946200Y-54173800D01*
X66946200Y-57026200D01*
G36*
X66946200Y-57026200D02*
G01*
X65793800Y-57026200D01*
X65793800Y-54173800D01*
X66946200Y-54173800D01*
X66946200Y-57026200D01*
G37*
%TD*%
D14*
%TO.C,J2*%
X51750000Y-56455000D03*
X46750000Y-56455000D03*
X51750000Y-59955003D03*
X46750000Y-59955003D03*
X51750000Y-63455004D03*
X46750000Y-63455004D03*
X51750000Y-66955004D03*
X46750000Y-66955004D03*
%TD*%
D15*
%TO.C,J4*%
X73610000Y-31140000D03*
X60410000Y-31140000D03*
%TD*%
D16*
%TO.C,J6*%
X92725000Y-46805000D03*
D17*
X90185000Y-46805000D03*
X92725000Y-49345000D03*
X90185000Y-49345000D03*
X92725000Y-51885000D03*
X90185000Y-51885000D03*
X92725000Y-54425000D03*
X90185000Y-54425000D03*
X92725000Y-56965000D03*
X90185000Y-56965000D03*
X92725000Y-59505000D03*
X90185000Y-59505000D03*
X92725000Y-62045000D03*
X90185000Y-62045000D03*
X92725000Y-64585000D03*
X90185000Y-64585000D03*
X92725000Y-67125000D03*
X90185000Y-67125000D03*
X92725000Y-69665000D03*
X90185000Y-69665000D03*
%TD*%
D14*
%TO.C,J3*%
X65109996Y-75500000D03*
X65109996Y-80500000D03*
X68609999Y-75500000D03*
X68609999Y-80500000D03*
X72110000Y-75500000D03*
X72110000Y-80500000D03*
X75610000Y-75500000D03*
X75610000Y-80500000D03*
%TD*%
M02*
