M48
; DRILL file {KiCad 9.0.6} date 2026-03-23T02:02:39+0000
; FORMAT={-:-/ absolute / metric / decimal}
; #@! TF.CreationDate,2026-03-23T02:02:39+00:00
; #@! TF.GenerationSoftware,Kicad,Pcbnew,9.0.6
; #@! TF.FileFunction,Plated,1,6,PTH
FMAT,2
METRIC
; #@! TA.AperFunction,Plated,PTH,ViaDrill
T1C0.300
; #@! TA.AperFunction,Plated,PTH,ComponentDrill
T2C1.016
; #@! TA.AperFunction,Plated,PTH,ComponentDrill
T3C1.200
; #@! TA.AperFunction,Plated,PTH,ComponentDrill
T4C1.800
%
G90
G05
T1
X40.75Y-44.75
X42.8Y-45.75
X42.993Y-48.872
X44.981Y-38.82
X44.981Y-72.75
X45.069Y-43.696
X45.069Y-77.696
X46.0Y-54.25
X46.585Y-52.25
X46.625Y-38.82
X46.625Y-72.75
X46.731Y-43.735
X46.731Y-77.735
X48.015Y-47.005
X48.25Y-63.5
X48.263Y-43.034
X48.263Y-77.034
X48.266Y-56.46
X48.341Y-39.588
X48.341Y-73.588
X48.75Y-47.0
X48.941Y-56.5
X48.981Y-41.32
X48.981Y-75.32
X49.0Y-63.5
X49.565Y-47.005
X49.647Y-56.49
X49.735Y-48.53
X49.75Y-63.505
X50.3Y-47.0
X51.03Y-46.99
X51.25Y-58.25
X52.8Y-69.25
X52.899Y-46.28
X54.91Y-70.82
X55.966Y-61.17
X56.054Y-58.835
X57.326Y-65.035
X57.38Y-74.6
X57.38Y-75.21
X57.38Y-75.84
X57.388Y-76.5
X57.388Y-77.13
X57.5Y-37.75
X57.5Y-42.0
X57.765Y-65.63
X58.061Y-65.03
X58.5Y-65.625
X58.75Y-34.5
X58.75Y-57.5
X58.75Y-64.5
X58.811Y-72.299
X58.856Y-67.16
X59.25Y-54.5
X60.31Y-43.9
X60.756Y-60.58
X61.0Y-78.25
X61.105Y-49.555
X61.25Y-37.0
X61.43Y-36.38
X61.535Y-47.367
X61.75Y-42.0
X62.01Y-50.955
X62.06Y-37.0
X62.24Y-36.38
X62.259Y-53.866
X62.5Y-48.25
X62.75Y-70.75
X62.955Y-36.855
X63.25Y-60.5
X63.898Y-70.625
X64.5Y-49.0
X64.5Y-69.5
X65.105Y-78.599
X65.11Y-77.099
X65.11Y-77.849
X65.31Y-68.64
X65.5Y-59.0
X65.535Y-52.542
X66.5Y-71.5
X66.7Y-69.04
X66.82Y-67.64
X67.0Y-42.15
X67.0Y-81.75
X67.5Y-55.5
X67.89Y-46.553
X68.526Y-56.25
X68.855Y-62.855
X69.25Y-68.0
X70.026Y-60.96
X70.176Y-64.75
X70.25Y-63.5
X70.5Y-81.75
X70.623Y-45.44
X71.418Y-56.405
X71.5Y-66.5
X71.52Y-47.75
X71.81Y-51.45
X72.137Y-78.0
X72.147Y-78.706
X72.176Y-77.325
X72.5Y-60.5
X72.75Y-58.25
X73.3Y-66.22
X73.362Y-42.519
X73.68Y-65.47
X73.846Y-53.113
X74.12Y-66.25
X74.25Y-50.45
X74.47Y-44.84
X74.5Y-42.75
X74.5Y-65.5
X74.91Y-48.26
X74.96Y-66.23
X75.108Y-62.248
X75.41Y-44.84
X75.92Y-56.21
X76.46Y-59.58
X76.75Y-56.25
X76.91Y-47.75
X76.944Y-53.096
X77.0Y-50.5
X77.585Y-44.905
X77.82Y-57.13
X77.88Y-68.94
X78.25Y-71.0
X79.331Y-33.415
X79.331Y-34.915
X79.331Y-36.415
X79.331Y-37.915
X79.36Y-44.9
X79.69Y-53.35
X79.75Y-55.5
X80.0Y-48.0
X80.25Y-29.5
X80.308Y-43.211
X80.331Y-36.915
X80.411Y-41.191
X80.411Y-42.191
X80.411Y-44.191
X80.411Y-45.191
X80.546Y-54.204
X80.566Y-48.566
X81.0Y-82.0
X81.0Y-85.0
X81.062Y-62.517
X81.142Y-33.184
X81.186Y-58.862
X81.25Y-32.0
X82.03Y-55.9
X82.15Y-57.036
X82.455Y-69.4
X82.75Y-47.75
X82.75Y-50.5
X83.402Y-53.688
X84.004Y-32.926
X84.22Y-65.92
X84.25Y-85.0
X84.543Y-81.9
X85.245Y-32.882
X85.331Y-31.915
X85.45Y-61.03
X85.536Y-64.316
X85.75Y-47.0
X85.831Y-36.565
X86.187Y-29.75
X86.195Y-32.552
X86.294Y-50.182
X86.478Y-42.926
X86.5Y-55.0
X86.539Y-53.377
X86.728Y-44.176
X87.5Y-85.0
X88.096Y-52.076
X88.1Y-65.0
X88.25Y-49.0
X88.934Y-41.166
X88.934Y-75.166
X89.575Y-42.898
X89.575Y-76.898
X89.653Y-39.451
X89.653Y-73.451
X90.75Y-85.0
X91.184Y-38.75
X91.184Y-72.75
X91.291Y-43.666
X91.291Y-77.666
X92.846Y-38.789
X92.846Y-72.789
X92.934Y-43.666
X92.934Y-77.666
T2
X90.185Y-46.805
X90.185Y-49.345
X90.185Y-51.885
X90.185Y-54.425
X90.185Y-56.965
X90.185Y-59.505
X90.185Y-62.045
X90.185Y-64.585
X90.185Y-67.125
X90.185Y-69.665
X92.725Y-46.805
X92.725Y-49.345
X92.725Y-51.885
X92.725Y-54.425
X92.725Y-56.965
X92.725Y-59.505
X92.725Y-62.045
X92.725Y-64.585
X92.725Y-67.125
X92.725Y-69.665
T3
X46.75Y-56.455
X46.75Y-59.955
X46.75Y-63.455
X46.75Y-66.955
X51.75Y-56.455
X51.75Y-59.955
X51.75Y-63.455
X51.75Y-66.955
X65.11Y-75.5
X65.11Y-80.5
X68.61Y-75.5
X68.61Y-80.5
X72.11Y-75.5
X72.11Y-80.5
X75.61Y-75.5
X75.61Y-80.5
T4
X64.91Y-35.34
X64.91Y-40.84
X69.11Y-35.34
X69.11Y-40.84
M30
