%TF.GenerationSoftware,KiCad,Pcbnew,9.0.6*%
%TF.CreationDate,2026-03-23T02:02:42+00:00*%
%TF.ProjectId,Pleasc,506c6561-7363-42e6-9b69-6361645f7063,rev?*%
%TF.SameCoordinates,Original*%
%TF.FileFunction,Legend,Bot*%
%TF.FilePolarity,Positive*%
%FSLAX46Y46*%
G04 Gerber Fmt 4.6, Leading zero omitted, Abs format (unit mm)*
G04 Created by KiCad (PCBNEW 9.0.6) date 2026-03-23 02:02:42*
%MOMM*%
%LPD*%
G01*
G04 APERTURE LIST*
%ADD10C,0.100000*%
%ADD11C,0.150000*%
%ADD12C,0.508000*%
%ADD13C,0.127000*%
G04 APERTURE END LIST*
D10*
X62002000Y-49487217D02*
X62044857Y-49615789D01*
X62044857Y-49615789D02*
X62044857Y-49830074D01*
X62044857Y-49830074D02*
X62002000Y-49915789D01*
X62002000Y-49915789D02*
X61959142Y-49958646D01*
X61959142Y-49958646D02*
X61873428Y-50001503D01*
X61873428Y-50001503D02*
X61787714Y-50001503D01*
X61787714Y-50001503D02*
X61702000Y-49958646D01*
X61702000Y-49958646D02*
X61659142Y-49915789D01*
X61659142Y-49915789D02*
X61616285Y-49830074D01*
X61616285Y-49830074D02*
X61573428Y-49658646D01*
X61573428Y-49658646D02*
X61530571Y-49572931D01*
X61530571Y-49572931D02*
X61487714Y-49530074D01*
X61487714Y-49530074D02*
X61402000Y-49487217D01*
X61402000Y-49487217D02*
X61316285Y-49487217D01*
X61316285Y-49487217D02*
X61230571Y-49530074D01*
X61230571Y-49530074D02*
X61187714Y-49572931D01*
X61187714Y-49572931D02*
X61144857Y-49658646D01*
X61144857Y-49658646D02*
X61144857Y-49872931D01*
X61144857Y-49872931D02*
X61187714Y-50001503D01*
X61144857Y-50301503D02*
X62044857Y-50515789D01*
X62044857Y-50515789D02*
X61402000Y-50687217D01*
X61402000Y-50687217D02*
X62044857Y-50858646D01*
X62044857Y-50858646D02*
X61144857Y-51072932D01*
X61959142Y-51930074D02*
X62002000Y-51887217D01*
X62002000Y-51887217D02*
X62044857Y-51758645D01*
X62044857Y-51758645D02*
X62044857Y-51672931D01*
X62044857Y-51672931D02*
X62002000Y-51544360D01*
X62002000Y-51544360D02*
X61916285Y-51458645D01*
X61916285Y-51458645D02*
X61830571Y-51415788D01*
X61830571Y-51415788D02*
X61659142Y-51372931D01*
X61659142Y-51372931D02*
X61530571Y-51372931D01*
X61530571Y-51372931D02*
X61359142Y-51415788D01*
X61359142Y-51415788D02*
X61273428Y-51458645D01*
X61273428Y-51458645D02*
X61187714Y-51544360D01*
X61187714Y-51544360D02*
X61144857Y-51672931D01*
X61144857Y-51672931D02*
X61144857Y-51758645D01*
X61144857Y-51758645D02*
X61187714Y-51887217D01*
X61187714Y-51887217D02*
X61230571Y-51930074D01*
X62044857Y-52744360D02*
X62044857Y-52315788D01*
X62044857Y-52315788D02*
X61144857Y-52315788D01*
X62044857Y-53044359D02*
X61144857Y-53044359D01*
X62044857Y-53558645D02*
X61530571Y-53172931D01*
X61144857Y-53558645D02*
X61659142Y-53044359D01*
X63450950Y-49487217D02*
X63493807Y-49615789D01*
X63493807Y-49615789D02*
X63493807Y-49830074D01*
X63493807Y-49830074D02*
X63450950Y-49915789D01*
X63450950Y-49915789D02*
X63408092Y-49958646D01*
X63408092Y-49958646D02*
X63322378Y-50001503D01*
X63322378Y-50001503D02*
X63236664Y-50001503D01*
X63236664Y-50001503D02*
X63150950Y-49958646D01*
X63150950Y-49958646D02*
X63108092Y-49915789D01*
X63108092Y-49915789D02*
X63065235Y-49830074D01*
X63065235Y-49830074D02*
X63022378Y-49658646D01*
X63022378Y-49658646D02*
X62979521Y-49572931D01*
X62979521Y-49572931D02*
X62936664Y-49530074D01*
X62936664Y-49530074D02*
X62850950Y-49487217D01*
X62850950Y-49487217D02*
X62765235Y-49487217D01*
X62765235Y-49487217D02*
X62679521Y-49530074D01*
X62679521Y-49530074D02*
X62636664Y-49572931D01*
X62636664Y-49572931D02*
X62593807Y-49658646D01*
X62593807Y-49658646D02*
X62593807Y-49872931D01*
X62593807Y-49872931D02*
X62636664Y-50001503D01*
X62593807Y-50301503D02*
X63493807Y-50515789D01*
X63493807Y-50515789D02*
X62850950Y-50687217D01*
X62850950Y-50687217D02*
X63493807Y-50858646D01*
X63493807Y-50858646D02*
X62593807Y-51072932D01*
X63493807Y-51415788D02*
X62593807Y-51415788D01*
X62593807Y-51415788D02*
X62593807Y-51630074D01*
X62593807Y-51630074D02*
X62636664Y-51758645D01*
X62636664Y-51758645D02*
X62722378Y-51844360D01*
X62722378Y-51844360D02*
X62808092Y-51887217D01*
X62808092Y-51887217D02*
X62979521Y-51930074D01*
X62979521Y-51930074D02*
X63108092Y-51930074D01*
X63108092Y-51930074D02*
X63279521Y-51887217D01*
X63279521Y-51887217D02*
X63365235Y-51844360D01*
X63365235Y-51844360D02*
X63450950Y-51758645D01*
X63450950Y-51758645D02*
X63493807Y-51630074D01*
X63493807Y-51630074D02*
X63493807Y-51415788D01*
X63493807Y-52315788D02*
X62593807Y-52315788D01*
X62593807Y-52915788D02*
X62593807Y-53087216D01*
X62593807Y-53087216D02*
X62636664Y-53172931D01*
X62636664Y-53172931D02*
X62722378Y-53258645D01*
X62722378Y-53258645D02*
X62893807Y-53301502D01*
X62893807Y-53301502D02*
X63193807Y-53301502D01*
X63193807Y-53301502D02*
X63365235Y-53258645D01*
X63365235Y-53258645D02*
X63450950Y-53172931D01*
X63450950Y-53172931D02*
X63493807Y-53087216D01*
X63493807Y-53087216D02*
X63493807Y-52915788D01*
X63493807Y-52915788D02*
X63450950Y-52830074D01*
X63450950Y-52830074D02*
X63365235Y-52744359D01*
X63365235Y-52744359D02*
X63193807Y-52701502D01*
X63193807Y-52701502D02*
X62893807Y-52701502D01*
X62893807Y-52701502D02*
X62722378Y-52744359D01*
X62722378Y-52744359D02*
X62636664Y-52830074D01*
X62636664Y-52830074D02*
X62593807Y-52915788D01*
X64942757Y-49530074D02*
X64042757Y-49530074D01*
X64042757Y-49530074D02*
X64942757Y-50044360D01*
X64942757Y-50044360D02*
X64042757Y-50044360D01*
X64942757Y-50987217D02*
X64514185Y-50687217D01*
X64942757Y-50472931D02*
X64042757Y-50472931D01*
X64042757Y-50472931D02*
X64042757Y-50815788D01*
X64042757Y-50815788D02*
X64085614Y-50901503D01*
X64085614Y-50901503D02*
X64128471Y-50944360D01*
X64128471Y-50944360D02*
X64214185Y-50987217D01*
X64214185Y-50987217D02*
X64342757Y-50987217D01*
X64342757Y-50987217D02*
X64428471Y-50944360D01*
X64428471Y-50944360D02*
X64471328Y-50901503D01*
X64471328Y-50901503D02*
X64514185Y-50815788D01*
X64514185Y-50815788D02*
X64514185Y-50472931D01*
X64899900Y-51330074D02*
X64942757Y-51458646D01*
X64942757Y-51458646D02*
X64942757Y-51672931D01*
X64942757Y-51672931D02*
X64899900Y-51758646D01*
X64899900Y-51758646D02*
X64857042Y-51801503D01*
X64857042Y-51801503D02*
X64771328Y-51844360D01*
X64771328Y-51844360D02*
X64685614Y-51844360D01*
X64685614Y-51844360D02*
X64599900Y-51801503D01*
X64599900Y-51801503D02*
X64557042Y-51758646D01*
X64557042Y-51758646D02*
X64514185Y-51672931D01*
X64514185Y-51672931D02*
X64471328Y-51501503D01*
X64471328Y-51501503D02*
X64428471Y-51415788D01*
X64428471Y-51415788D02*
X64385614Y-51372931D01*
X64385614Y-51372931D02*
X64299900Y-51330074D01*
X64299900Y-51330074D02*
X64214185Y-51330074D01*
X64214185Y-51330074D02*
X64128471Y-51372931D01*
X64128471Y-51372931D02*
X64085614Y-51415788D01*
X64085614Y-51415788D02*
X64042757Y-51501503D01*
X64042757Y-51501503D02*
X64042757Y-51715788D01*
X64042757Y-51715788D02*
X64085614Y-51844360D01*
X64042757Y-52101503D02*
X64042757Y-52615789D01*
X64942757Y-52358646D02*
X64042757Y-52358646D01*
X65491707Y-49444360D02*
X65491707Y-50001503D01*
X65491707Y-50001503D02*
X65834564Y-49701503D01*
X65834564Y-49701503D02*
X65834564Y-49830074D01*
X65834564Y-49830074D02*
X65877421Y-49915789D01*
X65877421Y-49915789D02*
X65920278Y-49958646D01*
X65920278Y-49958646D02*
X66005992Y-50001503D01*
X66005992Y-50001503D02*
X66220278Y-50001503D01*
X66220278Y-50001503D02*
X66305992Y-49958646D01*
X66305992Y-49958646D02*
X66348850Y-49915789D01*
X66348850Y-49915789D02*
X66391707Y-49830074D01*
X66391707Y-49830074D02*
X66391707Y-49572931D01*
X66391707Y-49572931D02*
X66348850Y-49487217D01*
X66348850Y-49487217D02*
X66305992Y-49444360D01*
X65491707Y-50258646D02*
X66391707Y-50558646D01*
X66391707Y-50558646D02*
X65491707Y-50858646D01*
X65491707Y-51072932D02*
X65491707Y-51630075D01*
X65491707Y-51630075D02*
X65834564Y-51330075D01*
X65834564Y-51330075D02*
X65834564Y-51458646D01*
X65834564Y-51458646D02*
X65877421Y-51544361D01*
X65877421Y-51544361D02*
X65920278Y-51587218D01*
X65920278Y-51587218D02*
X66005992Y-51630075D01*
X66005992Y-51630075D02*
X66220278Y-51630075D01*
X66220278Y-51630075D02*
X66305992Y-51587218D01*
X66305992Y-51587218D02*
X66348850Y-51544361D01*
X66348850Y-51544361D02*
X66391707Y-51458646D01*
X66391707Y-51458646D02*
X66391707Y-51201503D01*
X66391707Y-51201503D02*
X66348850Y-51115789D01*
X66348850Y-51115789D02*
X66305992Y-51072932D01*
X66983514Y-50001503D02*
X66940657Y-49915789D01*
X66940657Y-49915789D02*
X66940657Y-49787217D01*
X66940657Y-49787217D02*
X66983514Y-49658646D01*
X66983514Y-49658646D02*
X67069228Y-49572931D01*
X67069228Y-49572931D02*
X67154942Y-49530074D01*
X67154942Y-49530074D02*
X67326371Y-49487217D01*
X67326371Y-49487217D02*
X67454942Y-49487217D01*
X67454942Y-49487217D02*
X67626371Y-49530074D01*
X67626371Y-49530074D02*
X67712085Y-49572931D01*
X67712085Y-49572931D02*
X67797800Y-49658646D01*
X67797800Y-49658646D02*
X67840657Y-49787217D01*
X67840657Y-49787217D02*
X67840657Y-49872931D01*
X67840657Y-49872931D02*
X67797800Y-50001503D01*
X67797800Y-50001503D02*
X67754942Y-50044360D01*
X67754942Y-50044360D02*
X67454942Y-50044360D01*
X67454942Y-50044360D02*
X67454942Y-49872931D01*
X67840657Y-50430074D02*
X66940657Y-50430074D01*
X66940657Y-50430074D02*
X67840657Y-50944360D01*
X67840657Y-50944360D02*
X66940657Y-50944360D01*
X67840657Y-51372931D02*
X66940657Y-51372931D01*
X66940657Y-51372931D02*
X66940657Y-51587217D01*
X66940657Y-51587217D02*
X66983514Y-51715788D01*
X66983514Y-51715788D02*
X67069228Y-51801503D01*
X67069228Y-51801503D02*
X67154942Y-51844360D01*
X67154942Y-51844360D02*
X67326371Y-51887217D01*
X67326371Y-51887217D02*
X67454942Y-51887217D01*
X67454942Y-51887217D02*
X67626371Y-51844360D01*
X67626371Y-51844360D02*
X67712085Y-51801503D01*
X67712085Y-51801503D02*
X67797800Y-51715788D01*
X67797800Y-51715788D02*
X67840657Y-51587217D01*
X67840657Y-51587217D02*
X67840657Y-51372931D01*
D11*
X69083333Y-55704819D02*
X69083333Y-56419104D01*
X69083333Y-56419104D02*
X69130952Y-56561961D01*
X69130952Y-56561961D02*
X69226190Y-56657200D01*
X69226190Y-56657200D02*
X69369047Y-56704819D01*
X69369047Y-56704819D02*
X69464285Y-56704819D01*
X68083333Y-56704819D02*
X68654761Y-56704819D01*
X68369047Y-56704819D02*
X68369047Y-55704819D01*
X68369047Y-55704819D02*
X68464285Y-55847676D01*
X68464285Y-55847676D02*
X68559523Y-55942914D01*
X68559523Y-55942914D02*
X68654761Y-55990533D01*
D12*
%TO.C,J2*%
X52131000Y-52100002D02*
G75*
G02*
X51369000Y-52100002I-381000J0D01*
G01*
X51369000Y-52100002D02*
G75*
G02*
X52131000Y-52100002I381000J0D01*
G01*
%TO.C,J3*%
X61135998Y-75500000D02*
G75*
G02*
X60373998Y-75500000I-381000J0D01*
G01*
X60373998Y-75500000D02*
G75*
G02*
X61135998Y-75500000I381000J0D01*
G01*
D13*
%TO.C,J1*%
X56350000Y-58330000D02*
X56950000Y-58730000D01*
X56350000Y-59130000D02*
X56350000Y-58330000D01*
X56950000Y-58730000D02*
X56350000Y-59130000D01*
X57220000Y-57270000D02*
X57220000Y-58900000D01*
X58490000Y-54350000D02*
X65550000Y-54350000D01*
X58900000Y-58900000D02*
X57220000Y-58900000D01*
X66820000Y-57270000D02*
X66820000Y-58900000D01*
X66820000Y-58900000D02*
X65140000Y-58900000D01*
%TD*%
M02*
