%TF.GenerationSoftware,KiCad,Pcbnew,9.0.6*%
%TF.CreationDate,2026-02-27T09:43:00+00:00*%
%TF.ProjectId,Pleasc,506c6561-7363-42e6-9b69-6361645f7063,rev?*%
%TF.SameCoordinates,Original*%
%TF.FileFunction,Soldermask,Top*%
%TF.FilePolarity,Negative*%
%FSLAX46Y46*%
G04 Gerber Fmt 4.6, Leading zero omitted, Abs format (unit mm)*
G04 Created by KiCad (PCBNEW 9.0.6) date 2026-02-27 09:43:00*
%MOMM*%
%LPD*%
G01*
G04 APERTURE LIST*
G04 Aperture macros list*
%AMRoundRect*
0 Rectangle with rounded corners*
0 $1 Rounding radius*
0 $2 $3 $4 $5 $6 $7 $8 $9 X,Y pos of 4 corners*
0 Add a 4 corners polygon primitive as box body*
4,1,4,$2,$3,$4,$5,$6,$7,$8,$9,$2,$3,0*
0 Add four circle primitives for the rounded corners*
1,1,$1+$1,$2,$3*
1,1,$1+$1,$4,$5*
1,1,$1+$1,$6,$7*
1,1,$1+$1,$8,$9*
0 Add four rect primitives between the rounded corners*
20,1,$1+$1,$2,$3,$4,$5,0*
20,1,$1+$1,$4,$5,$6,$7,0*
20,1,$1+$1,$6,$7,$8,$9,0*
20,1,$1+$1,$8,$9,$2,$3,0*%
G04 Aperture macros list end*
%ADD10C,3.100000*%
%ADD11C,0.000000*%
%ADD12C,1.676200*%
%ADD13C,1.226200*%
%ADD14C,0.010000*%
%ADD15RoundRect,0.140000X0.140000X0.170000X-0.140000X0.170000X-0.140000X-0.170000X0.140000X-0.170000X0*%
%ADD16RoundRect,0.102000X-0.900000X-0.500000X0.900000X-0.500000X0.900000X0.500000X-0.900000X0.500000X0*%
%ADD17RoundRect,0.140000X-0.140000X-0.170000X0.140000X-0.170000X0.140000X0.170000X-0.140000X0.170000X0*%
%ADD18RoundRect,0.135000X-0.135000X-0.185000X0.135000X-0.185000X0.135000X0.185000X-0.135000X0.185000X0*%
%ADD19RoundRect,0.135000X0.185000X-0.135000X0.185000X0.135000X-0.185000X0.135000X-0.185000X-0.135000X0*%
%ADD20RoundRect,0.150000X0.587500X0.150000X-0.587500X0.150000X-0.587500X-0.150000X0.587500X-0.150000X0*%
%ADD21RoundRect,0.135000X-0.185000X0.135000X-0.185000X-0.135000X0.185000X-0.135000X0.185000X0.135000X0*%
%ADD22R,1.219200X0.533400*%
%ADD23RoundRect,0.147500X0.172500X-0.147500X0.172500X0.147500X-0.172500X0.147500X-0.172500X-0.147500X0*%
%ADD24RoundRect,0.147500X-0.147500X-0.172500X0.147500X-0.172500X0.147500X0.172500X-0.147500X0.172500X0*%
%ADD25RoundRect,0.135000X0.135000X0.185000X-0.135000X0.185000X-0.135000X-0.185000X0.135000X-0.185000X0*%
%ADD26RoundRect,0.150000X0.150000X-0.587500X0.150000X0.587500X-0.150000X0.587500X-0.150000X-0.587500X0*%
%ADD27RoundRect,0.150000X-0.150000X0.587500X-0.150000X-0.587500X0.150000X-0.587500X0.150000X0.587500X0*%
%ADD28RoundRect,0.150000X-0.150000X0.825000X-0.150000X-0.825000X0.150000X-0.825000X0.150000X0.825000X0*%
%ADD29RoundRect,0.140000X0.170000X-0.140000X0.170000X0.140000X-0.170000X0.140000X-0.170000X-0.140000X0*%
%ADD30RoundRect,0.147500X-0.172500X0.147500X-0.172500X-0.147500X0.172500X-0.147500X0.172500X0.147500X0*%
%ADD31RoundRect,0.140000X-0.170000X0.140000X-0.170000X-0.140000X0.170000X-0.140000X0.170000X0.140000X0*%
%ADD32RoundRect,0.102000X0.500000X-0.900000X0.500000X0.900000X-0.500000X0.900000X-0.500000X-0.900000X0*%
%ADD33R,0.127000X0.127000*%
%ADD34R,1.295400X0.203200*%
%ADD35R,0.254000X2.057400*%
%ADD36C,1.900000*%
%ADD37C,3.200000*%
%ADD38RoundRect,0.093750X0.093750X0.106250X-0.093750X0.106250X-0.093750X-0.106250X0.093750X-0.106250X0*%
%ADD39R,1.000000X1.600000*%
%ADD40R,0.533400X1.219200*%
%ADD41RoundRect,0.102000X0.762000X-0.762000X0.762000X0.762000X-0.762000X0.762000X-0.762000X-0.762000X0*%
%ADD42C,1.728000*%
%ADD43RoundRect,0.102000X0.900000X0.500000X-0.900000X0.500000X-0.900000X-0.500000X0.900000X-0.500000X0*%
%ADD44RoundRect,0.075000X-0.662500X-0.075000X0.662500X-0.075000X0.662500X0.075000X-0.662500X0.075000X0*%
%ADD45RoundRect,0.075000X-0.075000X-0.662500X0.075000X-0.662500X0.075000X0.662500X-0.075000X0.662500X0*%
%ADD46R,2.387600X1.295400*%
%ADD47RoundRect,0.150000X-0.587500X-0.150000X0.587500X-0.150000X0.587500X0.150000X-0.587500X0.150000X0*%
G04 APERTURE END LIST*
D10*
X47955352Y-41264955D02*
G75*
G02*
X44855352Y-41264955I-1550000J0D01*
G01*
X44855352Y-41264955D02*
G75*
G02*
X47955352Y-41264955I1550000J0D01*
G01*
X47959408Y-41265009D02*
G75*
G02*
X44859408Y-41265009I-1550000J0D01*
G01*
X44859408Y-41265009D02*
G75*
G02*
X47959408Y-41265009I1550000J0D01*
G01*
X93004050Y-41265009D02*
G75*
G02*
X89904050Y-41265009I-1550000J0D01*
G01*
X89904050Y-41265009D02*
G75*
G02*
X93004050Y-41265009I1550000J0D01*
G01*
X47955352Y-75206081D02*
G75*
G02*
X44855352Y-75206081I-1550000J0D01*
G01*
X44855352Y-75206081D02*
G75*
G02*
X47955352Y-75206081I1550000J0D01*
G01*
X92999994Y-75206081D02*
G75*
G02*
X89899994Y-75206081I-1550000J0D01*
G01*
X89899994Y-75206081D02*
G75*
G02*
X92999994Y-75206081I1550000J0D01*
G01*
X93004050Y-75206135D02*
G75*
G02*
X89904050Y-75206135I-1550000J0D01*
G01*
X89904050Y-75206135D02*
G75*
G02*
X93004050Y-75206135I1550000J0D01*
G01*
X92999994Y-41264955D02*
G75*
G02*
X89899994Y-41264955I-1550000J0D01*
G01*
X89899994Y-41264955D02*
G75*
G02*
X92999994Y-41264955I1550000J0D01*
G01*
X47959408Y-75206135D02*
G75*
G02*
X44859408Y-75206135I-1550000J0D01*
G01*
X44859408Y-75206135D02*
G75*
G02*
X47959408Y-75206135I1550000J0D01*
G01*
D11*
%TO.C,U2*%
G36*
X84242326Y-34370221D02*
G01*
X84788026Y-34362221D01*
X84788026Y-34512221D01*
X85288026Y-34512221D01*
X85288025Y-34713820D01*
X83992625Y-34713820D01*
X83988326Y-33862221D01*
X84242326Y-33862221D01*
X84242326Y-34370221D01*
G37*
G36*
X81988027Y-34436620D02*
G01*
X81738027Y-34713820D01*
X80692627Y-34713820D01*
X80692627Y-34510620D01*
X81192627Y-34510620D01*
X81192627Y-34362620D01*
X81738326Y-34370221D01*
X81738326Y-33862221D01*
X81992326Y-33862221D01*
X81988027Y-34436620D01*
G37*
G36*
X85288025Y-37563822D02*
G01*
X84788025Y-37563822D01*
X84788025Y-38110621D01*
X85288025Y-38110621D01*
X85288025Y-38313821D01*
X80692627Y-38313821D01*
X80692627Y-38110621D01*
X81192627Y-38110621D01*
X81192627Y-37563822D01*
X80692627Y-37563822D01*
X80692627Y-37360622D01*
X85288025Y-37360622D01*
X85288025Y-37563822D01*
G37*
G36*
X85288025Y-39413822D02*
G01*
X84788025Y-39413822D01*
X84788025Y-39953822D01*
X84242326Y-39954221D01*
X84242326Y-40462221D01*
X83988326Y-40462221D01*
X83988326Y-39954221D01*
X81992326Y-39954221D01*
X81992326Y-40462221D01*
X81738326Y-40462221D01*
X81738326Y-39954221D01*
X81192627Y-39953822D01*
X81192627Y-39413822D01*
X80692627Y-39413822D01*
X80692627Y-39210622D01*
X85288025Y-39210622D01*
X85288025Y-39413822D01*
G37*
D12*
%TO.C,J5*%
X61248100Y-31140000D02*
G75*
G02*
X59571900Y-31140000I-838100J0D01*
G01*
X59571900Y-31140000D02*
G75*
G02*
X61248100Y-31140000I838100J0D01*
G01*
D13*
X65523100Y-40840000D02*
G75*
G02*
X64296900Y-40840000I-613100J0D01*
G01*
X64296900Y-40840000D02*
G75*
G02*
X65523100Y-40840000I613100J0D01*
G01*
X69723100Y-35340000D02*
G75*
G02*
X68496900Y-35340000I-613100J0D01*
G01*
X68496900Y-35340000D02*
G75*
G02*
X69723100Y-35340000I613100J0D01*
G01*
X69723100Y-40840000D02*
G75*
G02*
X68496900Y-40840000I-613100J0D01*
G01*
X68496900Y-40840000D02*
G75*
G02*
X69723100Y-40840000I613100J0D01*
G01*
D12*
X74448100Y-31140000D02*
G75*
G02*
X72771900Y-31140000I-838100J0D01*
G01*
X72771900Y-31140000D02*
G75*
G02*
X74448100Y-31140000I838100J0D01*
G01*
D14*
X66136200Y-36566200D02*
X63683800Y-36566200D01*
X63683800Y-34113800D01*
X66136200Y-34113800D01*
X66136200Y-36566200D01*
G36*
X66136200Y-36566200D02*
G01*
X63683800Y-36566200D01*
X63683800Y-34113800D01*
X66136200Y-34113800D01*
X66136200Y-36566200D01*
G37*
%TD*%
D15*
%TO.C,C51*%
X85208498Y-45391053D03*
X84248498Y-45391053D03*
%TD*%
D16*
%TO.C,PYRO_ON*%
X84500000Y-83500000D03*
%TD*%
D17*
%TO.C,C17*%
X66460681Y-52575892D03*
X67420681Y-52575892D03*
%TD*%
D18*
%TO.C,R9*%
X70450000Y-70330000D03*
X71470000Y-70330000D03*
%TD*%
D19*
%TO.C,R35*%
X81250000Y-58010000D03*
X81250000Y-56990000D03*
%TD*%
D15*
%TO.C,C7*%
X68512995Y-53654839D03*
X67552995Y-53654839D03*
%TD*%
D20*
%TO.C,Q1*%
X74187500Y-69790000D03*
X74187500Y-67890000D03*
X72312500Y-68840000D03*
%TD*%
D21*
%TO.C,R30*%
X59816000Y-58445000D03*
X59816000Y-59465000D03*
%TD*%
D19*
%TO.C,R49*%
X54100000Y-36530000D03*
X54100000Y-35510000D03*
%TD*%
D22*
%TO.C,U8*%
X59821000Y-51840000D03*
X59821000Y-50570000D03*
X52929000Y-50570000D03*
X52929000Y-51840000D03*
%TD*%
D23*
%TO.C,D5*%
X55966000Y-62705000D03*
X55966000Y-61735000D03*
%TD*%
D15*
%TO.C,C6*%
X68517995Y-54629839D03*
X67557995Y-54629839D03*
%TD*%
D24*
%TO.C,D4*%
X42570464Y-48075000D03*
X43540464Y-48075000D03*
%TD*%
D16*
%TO.C,CAN-*%
X87540000Y-67020000D03*
%TD*%
D25*
%TO.C,R41*%
X65646697Y-71353590D03*
X64626697Y-71353590D03*
%TD*%
%TO.C,R19*%
X51570000Y-48530000D03*
X50550000Y-48530000D03*
%TD*%
D26*
%TO.C,Q9*%
X55276000Y-56777500D03*
X57176000Y-56777500D03*
X56226000Y-54902500D03*
%TD*%
D21*
%TO.C,R3*%
X87158746Y-35463750D03*
X87158746Y-36483750D03*
%TD*%
D25*
%TO.C,R16*%
X53335000Y-49530000D03*
X52315000Y-49530000D03*
%TD*%
D15*
%TO.C,C1*%
X69965000Y-46917500D03*
X69005000Y-46917500D03*
%TD*%
D19*
%TO.C,R40*%
X59620000Y-85559736D03*
X59620000Y-84539736D03*
%TD*%
D27*
%TO.C,Q10*%
X58700000Y-77750000D03*
X56800000Y-77750000D03*
X57750000Y-79625000D03*
%TD*%
D25*
%TO.C,R47*%
X57250000Y-44750000D03*
X56230000Y-44750000D03*
%TD*%
D19*
%TO.C,R27*%
X55026000Y-62730000D03*
X55026000Y-61710000D03*
%TD*%
D15*
%TO.C,C16*%
X68125671Y-47555724D03*
X67165671Y-47555724D03*
%TD*%
D20*
%TO.C,Q2*%
X77077500Y-71920000D03*
X77077500Y-70020000D03*
X75202500Y-70970000D03*
%TD*%
D22*
%TO.C,U13*%
X56273736Y-68249922D03*
X56273736Y-69519922D03*
X63165736Y-69519922D03*
X63165736Y-68249922D03*
%TD*%
D20*
%TO.C,Q5*%
X50837500Y-52080000D03*
X50837500Y-50180000D03*
X48962500Y-51130000D03*
%TD*%
D21*
%TO.C,R15*%
X61225000Y-50970000D03*
X61225000Y-51990000D03*
%TD*%
D28*
%TO.C,U4*%
X87215000Y-51930000D03*
X85945000Y-51930000D03*
X84675000Y-51930000D03*
X83405000Y-51930000D03*
X83405000Y-56880000D03*
X84675000Y-56880000D03*
X85945000Y-56880000D03*
X87215000Y-56880000D03*
%TD*%
D29*
%TO.C,C20*%
X87270521Y-34425055D03*
X87270521Y-33465055D03*
%TD*%
D25*
%TO.C,R8*%
X73710000Y-71390000D03*
X72690000Y-71390000D03*
%TD*%
D26*
%TO.C,Q7*%
X57206000Y-62567500D03*
X59106000Y-62567500D03*
X58156000Y-60692500D03*
%TD*%
D30*
%TO.C,D11*%
X55100000Y-35550000D03*
X55100000Y-36520000D03*
%TD*%
D18*
%TO.C,R38*%
X56675078Y-81699736D03*
X57695078Y-81699736D03*
%TD*%
D25*
%TO.C,R34*%
X56710000Y-70585000D03*
X55690000Y-70585000D03*
%TD*%
D31*
%TO.C,C15*%
X85410000Y-58755000D03*
X85410000Y-59715000D03*
%TD*%
D17*
%TO.C,C12*%
X84823213Y-49210388D03*
X85783213Y-49210388D03*
%TD*%
%TO.C,C4*%
X77755000Y-54792500D03*
X78715000Y-54792500D03*
%TD*%
D15*
%TO.C,C34*%
X82380423Y-42179014D03*
X81420423Y-42179014D03*
%TD*%
D16*
%TO.C,VBAT*%
X90750000Y-86500000D03*
%TD*%
D32*
%TO.C,CAN+*%
X87920000Y-63440000D03*
%TD*%
D29*
%TO.C,C10*%
X86158746Y-38453750D03*
X86158746Y-37493750D03*
%TD*%
D19*
%TO.C,R28*%
X60866000Y-59515000D03*
X60866000Y-58495000D03*
%TD*%
D15*
%TO.C,C31*%
X44980000Y-52300000D03*
X44020000Y-52300000D03*
%TD*%
D33*
%TO.C,U2*%
X81340327Y-34612220D03*
D34*
X81340327Y-35062221D03*
X81340327Y-35512220D03*
X81340327Y-35962222D03*
X81340327Y-36412221D03*
X81340327Y-36862220D03*
D33*
X81340327Y-37462222D03*
X81340327Y-38212221D03*
X81340327Y-39312222D03*
X81865326Y-40208221D03*
X84115326Y-40208221D03*
X84640325Y-39312222D03*
X84640325Y-38212221D03*
X84640325Y-37462222D03*
D34*
X84640325Y-36862220D03*
X84640325Y-36412221D03*
X84640325Y-35962222D03*
X84640325Y-35512220D03*
X84640325Y-35062221D03*
D33*
X84640325Y-34612220D03*
X84115326Y-34116221D03*
D35*
X83265327Y-34891221D03*
X82715325Y-34891221D03*
D33*
X81865326Y-34116221D03*
%TD*%
D21*
%TO.C,R18*%
X45617764Y-49080000D03*
X45617764Y-50100000D03*
%TD*%
D36*
%TO.C,J1*%
X51750000Y-56455000D03*
X46750000Y-56455000D03*
X51750000Y-59955003D03*
X46750000Y-59955003D03*
X51750000Y-63455004D03*
X46750000Y-63455004D03*
X51750000Y-66955004D03*
X46750000Y-66955004D03*
%TD*%
D24*
%TO.C,D1*%
X73705000Y-72370000D03*
X74675000Y-72370000D03*
%TD*%
D37*
%TO.C,J5*%
X73610000Y-31140000D03*
X60410000Y-31140000D03*
%TD*%
D15*
%TO.C,C21*%
X82377553Y-41174498D03*
X81417553Y-41174498D03*
%TD*%
D21*
%TO.C,R48*%
X59130000Y-35760000D03*
X59130000Y-36780000D03*
%TD*%
D17*
%TO.C,C13*%
X84825000Y-50180000D03*
X85785000Y-50180000D03*
%TD*%
D38*
%TO.C,U5*%
X85594917Y-44081757D03*
X85594917Y-43431757D03*
X85594917Y-42781757D03*
X83819917Y-42781757D03*
X83819917Y-43431757D03*
X83819917Y-44081757D03*
D39*
X84707417Y-43431757D03*
%TD*%
D17*
%TO.C,C29*%
X82428746Y-32006967D03*
X83388746Y-32006967D03*
%TD*%
D24*
%TO.C,D2*%
X68575000Y-72390000D03*
X69545000Y-72390000D03*
%TD*%
D15*
%TO.C,C47*%
X82397734Y-44223750D03*
X81437734Y-44223750D03*
%TD*%
D17*
%TO.C,C2*%
X71430000Y-43942500D03*
X72390000Y-43942500D03*
%TD*%
%TO.C,C11*%
X82428746Y-33006967D03*
X83388746Y-33006967D03*
%TD*%
D30*
%TO.C,D6*%
X54016000Y-56455000D03*
X54016000Y-57425000D03*
%TD*%
D21*
%TO.C,R20*%
X44667764Y-46880000D03*
X44667764Y-47900000D03*
%TD*%
D26*
%TO.C,Q8*%
X54096000Y-66037500D03*
X55996000Y-66037500D03*
X55046000Y-64162500D03*
%TD*%
D20*
%TO.C,Q3*%
X68997500Y-71140000D03*
X68997500Y-69240000D03*
X67122500Y-70190000D03*
%TD*%
D24*
%TO.C,D3*%
X45607764Y-51040000D03*
X46577764Y-51040000D03*
%TD*%
D20*
%TO.C,Q6*%
X43100000Y-46700000D03*
X43100000Y-44800000D03*
X41225000Y-45750000D03*
%TD*%
D40*
%TO.C,U3*%
X82455000Y-60364000D03*
X81185000Y-60364000D03*
X81185000Y-67256000D03*
X82455000Y-67256000D03*
%TD*%
D23*
%TO.C,D8*%
X59610078Y-83634736D03*
X59610078Y-82664736D03*
%TD*%
D16*
%TO.C,3.3V*%
X84250000Y-86500000D03*
%TD*%
D22*
%TO.C,U11*%
X60750000Y-61585000D03*
X60750000Y-62855000D03*
X67642000Y-62855000D03*
X67642000Y-61585000D03*
%TD*%
D29*
%TO.C,C33*%
X61000000Y-82690000D03*
X61000000Y-81730000D03*
%TD*%
D21*
%TO.C,R24*%
X69206000Y-65140000D03*
X69206000Y-66160000D03*
%TD*%
D17*
%TO.C,C5*%
X77765000Y-55742500D03*
X78725000Y-55742500D03*
%TD*%
D41*
%TO.C,J3*%
X92725000Y-46805000D03*
D42*
X90185000Y-46805000D03*
X92725000Y-49345000D03*
X90185000Y-49345000D03*
X92725000Y-51885000D03*
X90185000Y-51885000D03*
X92725000Y-54425000D03*
X90185000Y-54425000D03*
X92725000Y-56965000D03*
X90185000Y-56965000D03*
X92725000Y-59505000D03*
X90185000Y-59505000D03*
X92725000Y-62045000D03*
X90185000Y-62045000D03*
X92725000Y-64585000D03*
X90185000Y-64585000D03*
X92725000Y-67125000D03*
X90185000Y-67125000D03*
X92725000Y-69665000D03*
X90185000Y-69665000D03*
%TD*%
D43*
%TO.C,5VL*%
X87476886Y-86500000D03*
%TD*%
D40*
%TO.C,U18*%
X56190000Y-43256000D03*
X57460000Y-43256000D03*
X57460000Y-36364000D03*
X56190000Y-36364000D03*
%TD*%
D19*
%TO.C,R7*%
X86263084Y-34436072D03*
X86263084Y-33416072D03*
%TD*%
D18*
%TO.C,R32*%
X64690000Y-70360000D03*
X65710000Y-70360000D03*
%TD*%
D21*
%TO.C,R4*%
X87158746Y-37463750D03*
X87158746Y-38483750D03*
%TD*%
D20*
%TO.C,Q4*%
X47997500Y-48930000D03*
X47997500Y-47030000D03*
X46122500Y-47980000D03*
%TD*%
D21*
%TO.C,R10*%
X70500000Y-68360000D03*
X70500000Y-69380000D03*
%TD*%
D25*
%TO.C,R25*%
X61131264Y-63905078D03*
X60111264Y-63905078D03*
%TD*%
D21*
%TO.C,R1*%
X84435000Y-58695000D03*
X84435000Y-59715000D03*
%TD*%
D17*
%TO.C,C19*%
X82428746Y-31006967D03*
X83388746Y-31006967D03*
%TD*%
D27*
%TO.C,D9*%
X86385000Y-61167500D03*
X84485000Y-61167500D03*
X85435000Y-63042500D03*
%TD*%
D19*
%TO.C,R12*%
X80160000Y-59040000D03*
X80160000Y-58020000D03*
%TD*%
D21*
%TO.C,R39*%
X55710078Y-80714736D03*
X55710078Y-81734736D03*
%TD*%
D25*
%TO.C,R29*%
X58851000Y-58480000D03*
X57831000Y-58480000D03*
%TD*%
D40*
%TO.C,U7*%
X77809922Y-67286264D03*
X79079922Y-67286264D03*
X79079922Y-60394264D03*
X77809922Y-60394264D03*
%TD*%
D22*
%TO.C,U9*%
X52898736Y-47194922D03*
X52898736Y-48464922D03*
X59790736Y-48464922D03*
X59790736Y-47194922D03*
%TD*%
D18*
%TO.C,R23*%
X67136264Y-63955078D03*
X68156264Y-63955078D03*
%TD*%
D29*
%TO.C,C14*%
X81985000Y-54585000D03*
X81985000Y-53625000D03*
%TD*%
D22*
%TO.C,U10*%
X67592264Y-66240078D03*
X67592264Y-64970078D03*
X60700264Y-64970078D03*
X60700264Y-66240078D03*
%TD*%
D21*
%TO.C,R37*%
X56074922Y-74422764D03*
X56074922Y-75442764D03*
%TD*%
D44*
%TO.C,U1*%
X69997500Y-47830000D03*
X69997500Y-48330000D03*
X69997500Y-48830000D03*
X69997500Y-49330000D03*
X69997500Y-49830000D03*
X69997500Y-50330000D03*
X69997500Y-50830000D03*
X69997500Y-51330000D03*
X69997500Y-51830000D03*
X69997500Y-52330000D03*
X69997500Y-52830000D03*
X69997500Y-53330000D03*
D45*
X71410000Y-54742500D03*
X71910000Y-54742500D03*
X72410000Y-54742500D03*
X72910000Y-54742500D03*
X73410000Y-54742500D03*
X73910000Y-54742500D03*
X74410000Y-54742500D03*
X74910000Y-54742500D03*
X75410000Y-54742500D03*
X75910000Y-54742500D03*
X76410000Y-54742500D03*
X76910000Y-54742500D03*
D44*
X78322500Y-53330000D03*
X78322500Y-52830000D03*
X78322500Y-52330000D03*
X78322500Y-51830000D03*
X78322500Y-51330000D03*
X78322500Y-50830000D03*
X78322500Y-50330000D03*
X78322500Y-49830000D03*
X78322500Y-49330000D03*
X78322500Y-48830000D03*
X78322500Y-48330000D03*
X78322500Y-47830000D03*
D45*
X76910000Y-46417500D03*
X76410000Y-46417500D03*
X75910000Y-46417500D03*
X75410000Y-46417500D03*
X74910000Y-46417500D03*
X74410000Y-46417500D03*
X73910000Y-46417500D03*
X73410000Y-46417500D03*
X72910000Y-46417500D03*
X72410000Y-46417500D03*
X71910000Y-46417500D03*
X71410000Y-46417500D03*
%TD*%
D21*
%TO.C,R6*%
X80145000Y-66850000D03*
X80145000Y-67870000D03*
%TD*%
D18*
%TO.C,R22*%
X40608071Y-48070000D03*
X41628071Y-48070000D03*
%TD*%
D17*
%TO.C,C8*%
X78360000Y-45955000D03*
X79320000Y-45955000D03*
%TD*%
D31*
%TO.C,C18*%
X70447448Y-54840735D03*
X70447448Y-55800735D03*
%TD*%
D17*
%TO.C,C30*%
X69870000Y-73420000D03*
X70830000Y-73420000D03*
%TD*%
D21*
%TO.C,R13*%
X79140000Y-68660000D03*
X79140000Y-69680000D03*
%TD*%
D22*
%TO.C,U12*%
X63196000Y-72895000D03*
X63196000Y-71625000D03*
X56304000Y-71625000D03*
X56304000Y-72895000D03*
%TD*%
D18*
%TO.C,R11*%
X66630000Y-72390000D03*
X67650000Y-72390000D03*
%TD*%
D46*
%TO.C,XTAL1*%
X67413477Y-49105283D03*
X67413477Y-51010283D03*
%TD*%
D25*
%TO.C,R33*%
X65610000Y-72378821D03*
X64590000Y-72378821D03*
%TD*%
D17*
%TO.C,C9*%
X78360000Y-46925000D03*
X79320000Y-46925000D03*
%TD*%
D27*
%TO.C,Q11*%
X60800000Y-74875000D03*
X58900000Y-74875000D03*
X59850000Y-76750000D03*
%TD*%
D36*
%TO.C,J4*%
X65109996Y-75500000D03*
X65109996Y-80500000D03*
X68609999Y-75500000D03*
X68609999Y-80500000D03*
X72110000Y-75500000D03*
X72110000Y-80500000D03*
X75610000Y-75500000D03*
X75610000Y-80500000D03*
%TD*%
D15*
%TO.C,C48*%
X82405821Y-45225594D03*
X81445821Y-45225594D03*
%TD*%
D21*
%TO.C,R31*%
X54016000Y-54510000D03*
X54016000Y-55530000D03*
%TD*%
D25*
%TO.C,R21*%
X45652764Y-45915000D03*
X44632764Y-45915000D03*
%TD*%
D18*
%TO.C,R36*%
X58940000Y-80137500D03*
X59960000Y-80137500D03*
%TD*%
D23*
%TO.C,D7*%
X60900000Y-80147500D03*
X60900000Y-79177500D03*
%TD*%
D15*
%TO.C,C50*%
X84711082Y-41723750D03*
X83751082Y-41723750D03*
%TD*%
D17*
%TO.C,C3*%
X71435000Y-44917500D03*
X72395000Y-44917500D03*
%TD*%
D27*
%TO.C,Q12*%
X58360078Y-83212236D03*
X56460078Y-83212236D03*
X57410078Y-85087236D03*
%TD*%
D47*
%TO.C,Q14*%
X59585000Y-38190000D03*
X59585000Y-40090000D03*
X61460000Y-39140000D03*
%TD*%
D16*
%TO.C,PGND*%
X80943489Y-83500000D03*
%TD*%
D31*
%TO.C,C32*%
X53916000Y-58950000D03*
X53916000Y-59910000D03*
%TD*%
D19*
%TO.C,R17*%
X70510000Y-66750000D03*
X70510000Y-65730000D03*
%TD*%
D15*
%TO.C,C35*%
X82380423Y-43207255D03*
X81420423Y-43207255D03*
%TD*%
D18*
%TO.C,R5*%
X82200000Y-58880000D03*
X83220000Y-58880000D03*
%TD*%
D27*
%TO.C,Q13*%
X53950000Y-32875000D03*
X52050000Y-32875000D03*
X53000000Y-34750000D03*
%TD*%
D16*
%TO.C,GND*%
X81000000Y-86500000D03*
%TD*%
D21*
%TO.C,R26*%
X62250000Y-49240000D03*
X62250000Y-50260000D03*
%TD*%
D19*
%TO.C,R2*%
X86385000Y-59715000D03*
X86385000Y-58695000D03*
%TD*%
D18*
%TO.C,R14*%
X59365000Y-49555000D03*
X60385000Y-49555000D03*
%TD*%
M02*
